<svg xmlns="http://www.w3.org/2000/svg" height="48" width="48" fill="#0d6efd"><path d="m5 21.1 8.35-8.3q.7-.7 1.625-1 .925-.3 1.925-.1l3.75.65q-2.7 3.05-4.4 5.825-1.7 2.775-3.1 6.425Zm10.05 4.45q1.35-3.6 3.425-6.85 2.075-3.25 4.625-5.8 4.4-4.35 10-6.525Q38.7 4.2 43.6 5.05q.85 4.9-1.3 10.5t-6.55 10q-2.55 2.55-5.825 4.625Q26.65 32.25 23.1 33.6Zm14.3-6.25q1 1 2.425 1 1.425 0 2.425-1 1-1 1-2.425 0-1.425-1-2.425-1-1-2.425-1-1.425 0-2.425 1-1 1-1 2.425 0 1.425 1 2.425ZM27.6 43.65l-3.55-8.15q3.65-1.4 6.4-3.1 2.75-1.7 5.8-4.4l.7 3.75q.2 1-.1 1.95-.3.95-1 1.65ZM8.15 32.1q1.75-1.7 4.225-1.725 2.475-.025 4.175 1.725 1.75 1.7 1.75 4.175 0 2.475-1.75 4.225-1.3 1.3-4 2.125T4.45 44.2q.75-5.4 1.575-8.075Q6.85 33.45 8.15 32.1Z"/></svg>
